<svg width="178" height="102" viewBox="0 0 178 102" fill="none" xmlns="http://www.w3.org/2000/svg">
<path d="M25.0655 3.56679C25.0655 4.45295 24.3059 6.22526 23.04 9.13691C21.6475 12.0486 20.5081 14.3272 19.8752 15.9729C17.0901 22.5558 15.0646 28.5057 13.9253 33.9492C12.7859 39.3927 12.153 45.0894 12.153 50.9127C12.153 56.2296 12.6593 61.5466 13.6721 66.6103C14.5582 71.5474 16.0774 76.6112 18.1029 81.6749C19.1156 84.3334 20.6347 87.6248 22.407 91.296C24.1793 94.9672 25.0655 97.2459 25.0655 98.1321C25.0655 99.0182 24.8123 99.7778 24.4325 100.284C24.0527 100.791 23.5464 101.044 22.9134 101.044C21.6475 101.044 20.2549 100.411 18.6092 99.0182C17.0901 97.6257 15.1912 95.4736 13.1657 92.562C8.73495 86.2323 5.44352 79.6494 3.29143 72.6868C1.13934 65.7242 0 58.5083 0 50.9127C0 43.9501 0.886154 37.2406 2.65846 30.911C4.55736 24.5813 7.21582 18.5048 10.887 12.5549C13.2923 8.63053 15.4444 5.71888 17.4699 3.69339C19.4954 1.79449 21.2677 0.781738 22.9134 0.781738C23.5464 0.781738 24.0527 1.03493 24.4325 1.5413C24.8123 2.04768 25.0655 2.68064 25.0655 3.56679Z" fill="black"/>
<path d="M151.953 98.1321C151.953 97.2459 152.713 95.4736 154.105 92.6885C155.498 89.7769 156.51 87.6248 157.27 85.8525C160.055 79.2696 162.08 73.1932 163.22 67.7496C164.486 62.3061 164.992 56.736 164.992 50.9127C164.992 45.5958 164.486 40.4055 163.473 35.3417C162.46 30.278 160.941 25.2143 158.916 20.0239C157.776 17.3655 156.384 14.074 154.611 10.4028C152.839 6.73163 151.953 4.45295 151.953 3.56679C151.953 2.68064 152.206 2.04768 152.586 1.5413C152.966 1.03493 153.599 0.781738 154.232 0.781738C155.624 0.781738 157.017 1.41471 158.536 2.80724C160.055 4.07317 161.954 6.22526 163.979 9.13691C168.41 15.4666 171.702 22.0494 173.854 29.0121C176.006 35.9747 177.145 43.3171 177.145 50.9127C177.145 57.8754 176.259 64.4582 174.36 70.9145C172.588 77.2441 169.803 83.3206 166.131 89.2705C163.6 93.3215 161.321 96.2332 159.422 98.1321C157.523 100.031 155.751 101.044 154.232 101.044C153.599 101.044 152.966 100.791 152.586 100.158C152.206 99.6512 151.953 99.0182 151.953 98.1321Z" fill="black"/>
<path d="M51.7598 68.3643C56.615 68.3643 60.551 64.4283 60.551 59.5731C60.551 54.7178 56.615 50.7819 51.7598 50.7819C46.9045 50.7819 42.9686 54.7178 42.9686 59.5731C42.9686 64.4283 46.9045 68.3643 51.7598 68.3643Z" fill="black"/>
<path d="M125.584 68.3643C120.728 68.3643 116.792 64.4283 116.792 59.5731C116.792 54.7178 120.728 50.7819 125.584 50.7819C130.439 50.7819 134.375 54.7178 134.375 59.5731C134.375 64.4283 130.439 68.3643 125.584 68.3643Z" fill="black"/>
</svg>
